<svg xmlns="http://www.w3.org/2000/svg" viewBox="0 0 24 24">
    <!-- Android Logo (simplifié et adapté) -->
    <g transform="scale(0.055) translate(50,50)">
        <path style="fill:#AAC148;" d="M311.358,136.395H101.779c-4.662,0-8.441,3.779-8.441,8.441v175.749
        c0,4.662,3.779,8.441,8.441,8.441h37.363v59.228c0,13.742,11.14,24.883,24.883,24.883l0,0c13.742,0,24.883-11.14,24.883-24.883
        v-59.228h34.803v59.228c0,13.742,11.14,24.883,24.883,24.883l0,0c13.742,0,24.883-11.14,24.883-24.883v-59.228h37.882
        c4.662,0,8.441-3.779,8.441-8.441V144.836C319.799,140.174,316.02,136.395,311.358,136.395z"/>
        <path style="fill:#AAC148;" d="M103.475,124.069h205.692c5.366,0,9.368-4.943,8.266-10.195
        c-6.804-32.428-27.45-59.756-55.465-75.543l17.584-31.727c1.19-2.148,0.414-4.855-1.734-6.045
        c-2.153-1.193-4.856-0.414-6.046,1.734l-17.717,31.966c-14.511-6.734-30.683-10.495-47.734-10.495
        c-17.052,0-33.224,3.761-47.735,10.495L140.869,2.292c-1.191-2.149-3.898-2.924-6.045-1.734c-2.148,1.19-2.924,3.897-1.734,6.045
        l17.584,31.727c-28.015,15.788-48.661,43.115-55.465,75.544C94.106,119.126,98.108,124.069,103.475,124.069z"/>
    </g>

    <!-- Balai -->
    <g transform="translate(12,12) rotate(45) scale(0.8)">
        <path d="M-2,-8 L2,-8 L2,4 L-2,4 Z" fill="#8B4513"/>
        <path d="M-4,4 L4,4 L6,8 L-6,8 Z" fill="#DEB887"/>
    </g>
</svg>